<svg width="50" height="74" viewBox="0 0 50 74" fill="none" xmlns="http://www.w3.org/2000/svg">
<path id="Right Calves Back" d="M5.09843 15.5367C5.99214 13.8006 6.53215 12.0521 7.73517 11.0367C8.93819 10.0213 10.2367 9.76505 11.5984 9.53669C12.9601 9.30834 13.7573 9.70841 15.0984 10.0367C16.4395 10.365 17.747 11.0958 19.0984 11.5367C20.4499 11.9775 21.1769 12.5367 22.5984 12.5367C24.02 12.5367 24.779 12.0658 26.0984 11.5367C27.4178 11.0076 29.2352 8.53669 30.7352 7.03669C32.7352 5.03669 34.8623 3.20121 36.2352 2.03669C37.608 0.872183 38.461 0.84213 40.2352 0.536695C41.2352 1.53669 43.2029 4.98626 44.2352 8.03669C45.2674 11.0871 45.7352 13.0367 46.5984 16.0367C47.3068 19.1782 47.8355 24.8675 48.2352 29.5367C48.6348 34.2059 48.7352 36.87 48.7352 41.0367C48.7352 45.2034 48.2352 54.1367 48.2352 54.5367C48.2352 57.0367 47.7352 60.0367 46.7352 62.5367C45.7352 65.5367 44.3827 66.7417 43.7352 68.0367C43.2352 69.0367 42.1831 70.2655 41.0984 70.5367C39.0984 71.0367 38.1302 70.1334 37.2352 69.5367C35.7352 68.5367 34.2556 66.4071 32.7352 64.0367C31.2147 61.6663 30.7125 58.6403 29.5984 57.0367C28.4844 55.4331 27.5984 54.0367 26.5984 53.0367C25.7131 52.4693 24.767 51.8342 23.7352 52.0367C22.7033 52.2392 22.1189 53.3856 21.7352 54.5367C21.2352 56.0367 21.2352 59.0367 20.7352 61.5367C20.2352 64.5367 19.2352 67.5367 18.7352 69.0367C17.7352 70.5367 16.2746 72.4449 14.5984 72.5367C12.9222 72.6285 11.0984 71.5367 9.59843 70.5367C8.09843 69.0367 5.73517 65.87 4.23517 63.5367C2.73517 61.2034 2.23517 59.5367 0.735168 53.5367C0.0922813 49.3208 0.939548 45.1049 1.23517 40.0367C1.53079 34.9685 2.19714 28.059 2.73517 24.5367C3.27319 21.0143 4.20472 17.2728 5.09843 15.5367Z" fill="white" fill-opacity="0.01" stroke="black" stroke-opacity="0.01"/>
</svg>
